PathFileType	4	(X/Y/Z)	C:/Users/beibeiliu/ov580/test_trc/User3\sequence.28_training_dense_left.trc
DataRate	CameraRate	NumFrames	NumMarkers	Units	OrigDataRate	OrigDataStartFrame	OrigNumFrames
120	120	15	19	mm	120	1	100
Frame#	Time	ThumbCMC			ThumbMCP			ThumbIP			ThumbTip			IndexMCP			IndexPIP			IndexTip			MiddleMCP			MiddlePIP			MiddleTip			RingMCP			RingPIP			RingTip			PinkyMCP			PinkyPIP			PinkyTip			BackHand1			BackHand2			BackHand3	
		X0	Y0	Z0	X1	Y1	Z1	X2	Y2	Z2	X3	Y3	Z3	X4	Y4	Z4	X5	Y5	Z5	X6	Y6	Z6	X7	Y7	Z7	X8	Y8	Z8	X9	Y9	Z9	X10	Y10	Z10	X11	Y11	Z11	X12	Y12	Z12	X13	Y13	Z13	X14	Y14	Z14	X15	Y15	Z15	X16	Y16	Z16	X17	Y17	Z17	X18	Y18	Z18	
0	0	-46.0498	5.4459	36.3956	-30.8318	-0.560669	12.306	-14.2189	-4.05082	-13.4462	-7.75512	-9.50892	-38.6505	-69.4458	32.8492	-34.9578	-62.5073	33.9788	-61.4784	-59.4331	31.4171	-92.7815	-94.0447	38.3102	-38.3821	-97.075	40.678	-67.6957	-101.517	33.5922	-99.8587	-115.727	31.0111	-31.7987	-123.474	31.8623	-53.2082	-132.822	24.6779	-79.2573	-138.377	18.5673	-14.2771	-147.357	15.3068	-31.2396	-155.002	9.64223	-55.1567	-107.396	34.8711	19.7271	-104.975	29.7194	54.3577	-74.378	32.093	31.224	
1	0.00833333	-46.3231	3.88354	32.6831	-28.375	-1.03395	9.65918	-18.083	-5.61376	-15.6574	-7.21871	-11.8438	-39.6546	-68.494	32.063	-37.8612	-62.5035	33.6733	-67.163	-59.9618	29.183	-95.1394	-92.2534	37.3689	-42.3229	-94.3341	39.0471	-66.7818	-100.098	31.8141	-101.297	-118.594	29.2118	-30.2575	-121.587	29.0104	-55.1807	-132.301	21.2035	-85.4713	-133.892	15.8094	-12.4091	-148.793	11.8539	-36.8591	-157.441	6.6623	-54.1476	-107.929	31.4185	22.2123	-102.912	29.5154	50.4393	-72.5299	29.9495	27.8647	
2	0.0166667	-45.2742	1.22328	33.2767	-29.1026	-3.68101	11.0064	-13.4887	-7.88992	-19.8647	-8.10828	-14.2066	-36.691	-62.3882	30.0152	-42.3727	-61.7572	31.327	-66.0717	-54.9752	27.4417	-92.1618	-93.362	35.2583	-39.9153	-93.9468	36.4117	-69.0636	-95.9094	29.7223	-101.119	-112.358	27.003	-30.3235	-122.376	26.0061	-60.1995	-132.44	18.4816	-84.842	-134.942	15.0654	-13.9628	-147.563	9.4927	-35.3339	-154.588	1.72447	-55.002	-107.468	30.6302	20.986	-101.194	26.2641	48.869	-72.5709	27.5087	29.7481	
3	0.025	-41.6684	2.05001	27.9578	-28.9907	-3.88578	7.25025	-14.5664	-8.8491	-18.6706	-6.41609	-15.5709	-36.1766	-64.4592	29.2331	-42.6676	-56.6082	30.2797	-70.1415	-59.4774	26.8177	-92.0045	-90.3169	33.7901	-39.696	-93.9378	35.5699	-71.9778	-98.1375	28.3295	-102.3	-112.144	26.6264	-33.8004	-122.581	25.1607	-59.543	-128.881	18.8405	-81.6724	-129.535	13.6042	-14.9713	-142.981	10.5791	-37.4159	-154.753	2.15205	-56.4244	-105.632	29.2241	16.7862	-104.6	26.147	47.5659	-70.9278	27.786	25.905	
4	0.0333333	-46.8367	2.31739	31.1193	-28.3342	-1.72548	4.8971	-12.4813	-7.09913	-18.042	-4.97075	-13.4442	-39.3211	-63.0462	29.6374	-40.0378	-59.4061	31.4834	-65.9802	-55.3753	27.837	-92.4845	-90.1397	35.8693	-46.0686	-92.7952	34.7045	-75.4303	-96.0855	29.0776	-102.293	-117.712	23.706	-33.4772	-122.559	23.4709	-62.7926	-131.727	13.6885	-86.8867	-136.013	9.93284	-17.8846	-141.122	6.30031	-38.6632	-153.313	-3.68741	-59.1297	-108.274	29.5197	16.479	-101.444	26.0823	44.2118	-73.7892	27.3485	24.9869	
5	0.0416667	-50.7183	7.96685	25.5821	-33.4013	5.01021	3.84424	-19.0956	2.29099	-23.8042	-8.72039	-3.95197	-43.3161	-69.5403	32.3844	-39.9114	-69.2841	34.5871	-71.2518	-62.3095	31.9626	-93.5128	-101.944	32.7804	-46.0054	-101.067	34.9152	-73.6931	-105.482	27.6016	-104.237	-123.335	17.1618	-35.8375	-129.391	14.8256	-64.4967	-134.205	5.24833	-86.6268	-136.234	0.958495	-21.9087	-140.862	-5.75968	-40.8457	-148.016	-20.6509	-61.8571	-112.014	23.7176	17.3504	-110.94	19.6459	44.4215	-78.271	28.1769	24.7015	
6	0.05	-56.988	15.8451	22.373	-39.6207	15.181	-1.1561	-27.6701	12.2256	-23.7508	-18.8576	9.66036	-46.2914	-87.7988	34.2208	-47.8367	-80.7485	37.7346	-69.8214	-78.6266	35.2685	-96.5506	-116.678	27.2754	-48.3919	-115.555	30.9826	-73.4024	-117.436	25.262	-108.653	-126.742	7.88269	-37.8277	-134.244	2.39022	-65.6069	-133.747	-9.05628	-94.7347	-139.659	-16.9466	-26.3676	-139.57	-27.9942	-49.736	-138.279	-41.5581	-67.2235	-120.82	13.0164	14.1543	-121.518	9.57171	43.3019	-94.6605	27.5125	24.0018	
7	0.0583333	-69.3443	19.8652	22.9942	-52.9453	21.6794	-2.79439	-38.757	26.3382	-32.0081	-28.5195	24.3596	-51.0921	-105.086	31.2962	-49.4297	-99.499	36.1501	-77.7575	-98.477	33.7591	-100.01	-130.068	16.9665	-50.8392	-132.58	19.0517	-76.8961	-128.935	15.1293	-114.261	-134.726	-6.3745	-42.7351	-139.346	-17.6709	-69.7955	-132.041	-29.9743	-93.5752	-138.512	-34.4552	-33.2904	-132	-43.9138	-50.4626	-118.984	-60.143	-70.5575	-134.96	-3.27291	11.7742	-130.308	-3.36942	38.3941	-108.292	24.2167	19.8299	
8	0.0666667	-86.1391	20.819	15.8594	-71.4705	25.5707	-10.2152	-60.1813	30.4674	-34.8805	-49.5611	33.2302	-58.8031	-123.798	18.651	-50.411	-122.232	24.0394	-82.0055	-114.665	25.7332	-107.961	-141.177	-3.12724	-50.8192	-146.032	-6.4466	-83.6023	-139.539	-9.90902	-114.575	-137.947	-29.3433	-47.1807	-132.68	-41.065	-72.6226	-110.154	-50.6082	-93.4004	-130.334	-53.9396	-30.899	-116.825	-61.101	-50.195	-93.4511	-71.1208	-63.7893	-139.302	-20.1635	7.12786	-134.858	-20.6389	38.8498	-123.296	10.2533	17.1515	
9	0.075	-99.8391	15.4527	14.5314	-83.0219	26.7821	-12.7359	-71.7747	34.9938	-35.4641	-61.4848	33.2794	-56.3331	-131.566	0.962216	-54.8474	-132.479	1.99568	-80.6174	-126.711	3.76339	-108.597	-140.721	-26.0688	-56.3055	-140.658	-30.0001	-85.1694	-129.968	-37.3016	-114.917	-125.218	-47.8248	-50.1984	-109.405	-62.1428	-69.1713	-77.1155	-62.2519	-75.9772	-113.18	-64.7974	-29.4145	-88.9894	-71.0289	-44.5935	-64.4008	-66.8206	-47.7849	-138.53	-40.8533	6.72476	-136.525	-35.339	33.6799	-132.519	-2.55068	14.3779	
10	0.0833333	-109.281	12.9014	9.92406	-92.5694	22.6617	-13.2643	-79.4699	31.4341	-38.1814	-66.9207	34.4533	-59.414	-132.484	-15.4692	-57.581	-132.693	-9.93967	-83.87	-124.781	-11.0023	-112.624	-133.812	-44.7546	-58.8824	-128.747	-49.6685	-85.2157	-110.06	-58.8837	-112.003	-107.725	-63.5839	-45.1132	-82.7859	-65.6424	-61.0128	-51.2941	-53.1485	-53.0951	-97.8762	-70.416	-26.7947	-70.9541	-68.1381	-36.5404	-48.7738	-55.8883	-30.7746	-133.503	-52.79	5.9126	-133.672	-45.2718	31.4612	-137.452	-16.2555	10.8491	
11	0.0916667	-115.647	7.3737	12.2308	-101.04	25.7338	-12.6033	-87.7222	34.2995	-37.4141	-72.626	30.3193	-56.646	-133.317	-20.6096	-58.8106	-133.145	-16.3016	-88.0066	-123.147	-15.0283	-110.652	-127.295	-51.2937	-57.0599	-117.021	-59.4444	-87.8545	-86.0047	-58.0812	-109.317	-97.3502	-62.2238	-43.4659	-69.3082	-55.598	-55.5185	-46.5603	-41.2076	-36.4711	-84.6586	-66.3698	-29.9475	-63.0457	-58.7848	-31.3236	-43.1084	-41.002	-14.9475	-129.912	-59.7646	1.81769	-132.351	-53.6334	32.0133	-137.893	-21.0533	5.98028	
12	0.1	-124.92	2.8274	6.71291	-110.81	19.9387	-14.0261	-98.7898	35.5757	-38.5361	-80.2502	30.9843	-58.5606	-136.673	-25.0835	-60.8293	-137.119	-19.0597	-89.4837	-122.141	-13.7641	-110.634	-123.612	-53.3491	-61.6883	-106.237	-57.5927	-90.5149	-74.4929	-45.6052	-97.6762	-88.9282	-59.1787	-47.0889	-62.0841	-40.7424	-53.6696	-53.6224	-24.0815	-27.2886	-77.3896	-63.5315	-28.0786	-56.819	-46.6344	-28.8341	-51.3049	-23.4626	-6.23937	-123.696	-59.5596	-3.96827	-129.169	-56.3793	30.0334	-139.436	-29.4092	6.16064	
13	0.108333	-134.48	-2.2155	9.49127	-127.194	19.4482	-17.1715	-115.233	31.4652	-42.4439	-90.6346	25.921	-57.5389	-133.339	-36.5088	-58.5587	-137.078	-32.528	-89.5646	-116.998	-15.955	-111.928	-115.02	-57.5992	-65.765	-96.1246	-49.4885	-91.6039	-71.0959	-24.3534	-84.5331	-82.8753	-50.3807	-52.257	-61.6863	-31.2872	-54.4296	-64.4359	-13.4956	-25.7926	-70.2017	-49.6046	-34.0679	-54.6935	-27.1048	-25.2291	-62.5214	-12.8221	-2.75516	-114.496	-64.2264	-6.84567	-122.528	-64.7648	24.0874	-141.082	-40.7192	5.28926	
14	0.116667	-144.474	-19.0982	7.88074	-146.204	2.64699	-14.859	-137.19	18.6814	-41.2192	-111.323	19.3701	-54.6074	-126.498	-49.7022	-61.8862	-126.614	-47.3942	-91.8812	-113.916	-24.6322	-110.724	-102.809	-53.5501	-66.8497	-86.7409	-34.4965	-89.6493	-75.6611	-4.79152	-61.7719	-76.7447	-42.1833	-53.0507	-63.0055	-14.8818	-51.4325	-75.6019	-7.31993	-23.69	-59.9943	-39.1981	-34.4902	-55.2427	-14.9495	-27.7433	-70.9085	-6.29293	2.04342	-98.6939	-71.3542	-6.09218	-107.582	-70.123	20.9067	-131.829	-55.8828	0.628873	
